<svg xmlns="http://www.w3.org/2000/svg" viewBox="0 0 512 512" fill="white">
  <!-- Simplified game controller with stronger outline - white version -->
  <path d="M368.8,192.8c-22.5,0-43.7,6.2-62.5,14.9c-13.3,6.1-27.4,11.5-42.3,11.5s-29-5.4-42.3-11.5c-18.8-8.7-40-14.9-62.5-14.9
    C71.5,192.8,0,264.3,0,352s71.5,159.2,159.2,159.2c22.5,0,43.7-6.2,62.5-14.9c13.3-6.1,27.4-11.5,42.3-11.5s29,5.4,42.3,11.5
    c18.8,8.7,40,14.9,62.5,14.9c87.7,0,159.2-71.5,159.2-159.2S456.5,192.8,368.8,192.8z M159.2,416c-35.3,0-64-28.7-64-64s28.7-64,64-64s64,28.7,64,64
    S194.5,416,159.2,416z M368.8,416c-19.2,0-34.7-28.7-34.7-64s15.5-64,34.7-64s34.7,28.7,34.7,64S388,416,368.8,416z"/>
  <!-- Left handle -->
  <path d="M159.2,0c-28.6,0-53.3,18.9-64,46.5C141.5,65.2,176,113,176,170.7v22.1c22.5,0,43.7,6.2,62.5,14.9
    c13.3,6.1,27.4,11.5,42.3,11.5s29-5.4,42.3-11.5c18.8-8.7,40-14.9,62.5-14.9c0.9,0,1.8,0.1,2.8,0.1V160C388.4,71.6,316.9,0,228.5,0H159.2z"/>
  <!-- D-pad -->
  <path fill="#dddddd" d="M176,352c0,8.8-7.2,16-16,16h-32v32c0,8.8-7.2,16-16,16h-16c-8.8,0-16-7.2-16-16v-32H48c-8.8,0-16-7.2-16-16v-16
    c0-8.8,7.2-16,16-16h32v-32c0-8.8,7.2-16,16-16h16c8.8,0,16,7.2,16,16v32h32c8.8,0,16,7.2,16,16V352z"/>
  <!-- Right face buttons -->
  <circle fill="#dddddd" cx="368" cy="352" r="16"/>
  <circle fill="#dddddd" cx="400" cy="320" r="16"/>
  <circle fill="#dddddd" cx="368" cy="288" r="16"/>
  <circle fill="#dddddd" cx="336" cy="320" r="16"/>
</svg>
